<mxfile host="app.diagrams.net" modified="2024-03-21T21:58:56.622Z" agent="Mozilla/5.0 (X11; Linux x86_64; rv:123.0) Gecko/20100101 Firefox/123.0" etag="COHVCnlEvpmDhxY4rzso" version="24.0.7" type="github">
  <diagram name="Page-1" id="mA1u0JO9VRvi4CoPxcTo">
    <mxGraphModel dx="1050" dy="517" grid="1" gridSize="10" guides="1" tooltips="1" connect="1" arrows="1" fold="1" page="1" pageScale="1" pageWidth="850" pageHeight="1100" math="0" shadow="0">
      <root>
        <mxCell id="0" />
        <mxCell id="1" parent="0" />
        <mxCell id="NTdiQIHInAV0fFWwkLTP-11" value="Správcovia" style="swimlane;fontStyle=1;align=center;verticalAlign=top;childLayout=stackLayout;horizontal=1;startSize=26;horizontalStack=0;resizeParent=1;resizeParentMax=0;resizeLast=0;collapsible=1;marginBottom=0;whiteSpace=wrap;html=1;" vertex="1" parent="1">
          <mxGeometry x="400" y="50" width="180" height="160" as="geometry" />
        </mxCell>
        <mxCell id="NTdiQIHInAV0fFWwkLTP-12" value="meno&lt;br&gt;priezvisko&lt;br&gt;pozícia" style="text;strokeColor=none;fillColor=none;align=left;verticalAlign=top;spacingLeft=4;spacingRight=4;overflow=hidden;rotatable=0;points=[[0,0.5],[1,0.5]];portConstraint=eastwest;whiteSpace=wrap;html=1;" vertex="1" parent="NTdiQIHInAV0fFWwkLTP-11">
          <mxGeometry y="26" width="180" height="64" as="geometry" />
        </mxCell>
        <mxCell id="NTdiQIHInAV0fFWwkLTP-13" value="" style="line;strokeWidth=1;fillColor=none;align=left;verticalAlign=middle;spacingTop=-1;spacingLeft=3;spacingRight=3;rotatable=0;labelPosition=right;points=[];portConstraint=eastwest;strokeColor=inherit;" vertex="1" parent="NTdiQIHInAV0fFWwkLTP-11">
          <mxGeometry y="90" width="180" height="8" as="geometry" />
        </mxCell>
        <mxCell id="NTdiQIHInAV0fFWwkLTP-14" value="pridať nového používateľa&lt;br&gt;upraviť informácie o miestnosti&lt;br&gt;riešiť problémy s miestnosťou&lt;br&gt;odstrániť starého používateľa&lt;div&gt;&lt;br/&gt;&lt;/div&gt;" style="text;strokeColor=none;fillColor=none;align=left;verticalAlign=top;spacingLeft=4;spacingRight=4;overflow=hidden;rotatable=0;points=[[0,0.5],[1,0.5]];portConstraint=eastwest;whiteSpace=wrap;html=1;" vertex="1" parent="NTdiQIHInAV0fFWwkLTP-11">
          <mxGeometry y="98" width="180" height="62" as="geometry" />
        </mxCell>
        <mxCell id="NTdiQIHInAV0fFWwkLTP-15" value="Študent" style="swimlane;fontStyle=1;align=center;verticalAlign=top;childLayout=stackLayout;horizontal=1;startSize=26;horizontalStack=0;resizeParent=1;resizeParentMax=0;resizeLast=0;collapsible=1;marginBottom=0;whiteSpace=wrap;html=1;" vertex="1" parent="1">
          <mxGeometry x="170" y="50" width="180" height="160" as="geometry" />
        </mxCell>
        <mxCell id="NTdiQIHInAV0fFWwkLTP-16" value="&lt;div&gt;meno&lt;/div&gt;&lt;div&gt;priezvisko&lt;/div&gt;&lt;div&gt;čislo izbý&lt;/div&gt;&lt;div&gt;kontaktné údaje&lt;br&gt;&lt;/div&gt;" style="text;strokeColor=none;fillColor=none;align=left;verticalAlign=top;spacingLeft=4;spacingRight=4;overflow=hidden;rotatable=0;points=[[0,0.5],[1,0.5]];portConstraint=eastwest;whiteSpace=wrap;html=1;" vertex="1" parent="NTdiQIHInAV0fFWwkLTP-15">
          <mxGeometry y="26" width="180" height="64" as="geometry" />
        </mxCell>
        <mxCell id="NTdiQIHInAV0fFWwkLTP-17" value="" style="line;strokeWidth=1;fillColor=none;align=left;verticalAlign=middle;spacingTop=-1;spacingLeft=3;spacingRight=3;rotatable=0;labelPosition=right;points=[];portConstraint=eastwest;strokeColor=inherit;" vertex="1" parent="NTdiQIHInAV0fFWwkLTP-15">
          <mxGeometry y="90" width="180" height="8" as="geometry" />
        </mxCell>
        <mxCell id="NTdiQIHInAV0fFWwkLTP-18" value="záznam o ubytovaní&lt;br&gt;žiadosť o zmenu izby&lt;br&gt;vyhlásenie o probléme&lt;br&gt;platba za ubytovanie" style="text;strokeColor=none;fillColor=none;align=left;verticalAlign=top;spacingLeft=4;spacingRight=4;overflow=hidden;rotatable=0;points=[[0,0.5],[1,0.5]];portConstraint=eastwest;whiteSpace=wrap;html=1;" vertex="1" parent="NTdiQIHInAV0fFWwkLTP-15">
          <mxGeometry y="98" width="180" height="62" as="geometry" />
        </mxCell>
        <mxCell id="NTdiQIHInAV0fFWwkLTP-37" value="Izba" style="swimlane;fontStyle=1;align=center;verticalAlign=top;childLayout=stackLayout;horizontal=1;startSize=26;horizontalStack=0;resizeParent=1;resizeParentMax=0;resizeLast=0;collapsible=1;marginBottom=0;whiteSpace=wrap;html=1;" vertex="1" parent="1">
          <mxGeometry x="600" y="50" width="180" height="160" as="geometry" />
        </mxCell>
        <mxCell id="NTdiQIHInAV0fFWwkLTP-38" value="&lt;div&gt;číslo izby&lt;/div&gt;&lt;div&gt;počet lôžok&lt;br&gt;stav izby (voľná/obsadená)&lt;br&gt;&lt;/div&gt;&lt;div&gt;&lt;br&gt;&lt;/div&gt;&lt;div&gt;&lt;br&gt;&lt;/div&gt;" style="text;strokeColor=none;fillColor=none;align=left;verticalAlign=top;spacingLeft=4;spacingRight=4;overflow=hidden;rotatable=0;points=[[0,0.5],[1,0.5]];portConstraint=eastwest;whiteSpace=wrap;html=1;" vertex="1" parent="NTdiQIHInAV0fFWwkLTP-37">
          <mxGeometry y="26" width="180" height="64" as="geometry" />
        </mxCell>
        <mxCell id="NTdiQIHInAV0fFWwkLTP-39" value="" style="line;strokeWidth=1;fillColor=none;align=left;verticalAlign=middle;spacingTop=-1;spacingLeft=3;spacingRight=3;rotatable=0;labelPosition=right;points=[];portConstraint=eastwest;strokeColor=inherit;" vertex="1" parent="NTdiQIHInAV0fFWwkLTP-37">
          <mxGeometry y="90" width="180" height="8" as="geometry" />
        </mxCell>
        <mxCell id="NTdiQIHInAV0fFWwkLTP-40" value="aktualizácia stavu izby&lt;br&gt;žiadosť o zmenu izby" style="text;strokeColor=none;fillColor=none;align=left;verticalAlign=top;spacingLeft=4;spacingRight=4;overflow=hidden;rotatable=0;points=[[0,0.5],[1,0.5]];portConstraint=eastwest;whiteSpace=wrap;html=1;" vertex="1" parent="NTdiQIHInAV0fFWwkLTP-37">
          <mxGeometry y="98" width="180" height="62" as="geometry" />
        </mxCell>
        <mxCell id="NTdiQIHInAV0fFWwkLTP-41" value="Problém" style="swimlane;fontStyle=1;align=center;verticalAlign=top;childLayout=stackLayout;horizontal=1;startSize=26;horizontalStack=0;resizeParent=1;resizeParentMax=0;resizeLast=0;collapsible=1;marginBottom=0;whiteSpace=wrap;html=1;" vertex="1" parent="1">
          <mxGeometry x="335" y="300" width="180" height="160" as="geometry" />
        </mxCell>
        <mxCell id="NTdiQIHInAV0fFWwkLTP-42" value="typ problému&lt;br&gt;opis problému&lt;br&gt;dátum oznámenia&lt;br&gt;stav (vyriešený/nevyriešený)" style="text;strokeColor=none;fillColor=none;align=left;verticalAlign=top;spacingLeft=4;spacingRight=4;overflow=hidden;rotatable=0;points=[[0,0.5],[1,0.5]];portConstraint=eastwest;whiteSpace=wrap;html=1;" vertex="1" parent="NTdiQIHInAV0fFWwkLTP-41">
          <mxGeometry y="26" width="180" height="64" as="geometry" />
        </mxCell>
        <mxCell id="NTdiQIHInAV0fFWwkLTP-43" value="" style="line;strokeWidth=1;fillColor=none;align=left;verticalAlign=middle;spacingTop=-1;spacingLeft=3;spacingRight=3;rotatable=0;labelPosition=right;points=[];portConstraint=eastwest;strokeColor=inherit;" vertex="1" parent="NTdiQIHInAV0fFWwkLTP-41">
          <mxGeometry y="90" width="180" height="8" as="geometry" />
        </mxCell>
        <mxCell id="NTdiQIHInAV0fFWwkLTP-44" value="oznámenie problému&lt;br&gt;riešenie problému" style="text;strokeColor=none;fillColor=none;align=left;verticalAlign=top;spacingLeft=4;spacingRight=4;overflow=hidden;rotatable=0;points=[[0,0.5],[1,0.5]];portConstraint=eastwest;whiteSpace=wrap;html=1;" vertex="1" parent="NTdiQIHInAV0fFWwkLTP-41">
          <mxGeometry y="98" width="180" height="62" as="geometry" />
        </mxCell>
        <mxCell id="NTdiQIHInAV0fFWwkLTP-45" value="Platba" style="swimlane;fontStyle=1;align=center;verticalAlign=top;childLayout=stackLayout;horizontal=1;startSize=26;horizontalStack=0;resizeParent=1;resizeParentMax=0;resizeLast=0;collapsible=1;marginBottom=0;whiteSpace=wrap;html=1;" vertex="1" parent="1">
          <mxGeometry x="560" y="300" width="180" height="160" as="geometry" />
        </mxCell>
        <mxCell id="NTdiQIHInAV0fFWwkLTP-46" value="výška platby&lt;br&gt;dátum platby&lt;br&gt;stav (zaplatené/nezaplatené)" style="text;strokeColor=none;fillColor=none;align=left;verticalAlign=top;spacingLeft=4;spacingRight=4;overflow=hidden;rotatable=0;points=[[0,0.5],[1,0.5]];portConstraint=eastwest;whiteSpace=wrap;html=1;" vertex="1" parent="NTdiQIHInAV0fFWwkLTP-45">
          <mxGeometry y="26" width="180" height="64" as="geometry" />
        </mxCell>
        <mxCell id="NTdiQIHInAV0fFWwkLTP-47" value="" style="line;strokeWidth=1;fillColor=none;align=left;verticalAlign=middle;spacingTop=-1;spacingLeft=3;spacingRight=3;rotatable=0;labelPosition=right;points=[];portConstraint=eastwest;strokeColor=inherit;" vertex="1" parent="NTdiQIHInAV0fFWwkLTP-45">
          <mxGeometry y="90" width="180" height="8" as="geometry" />
        </mxCell>
        <mxCell id="NTdiQIHInAV0fFWwkLTP-48" value="uskutočnenie platby&lt;br&gt;aktualizácia stavu platby" style="text;strokeColor=none;fillColor=none;align=left;verticalAlign=top;spacingLeft=4;spacingRight=4;overflow=hidden;rotatable=0;points=[[0,0.5],[1,0.5]];portConstraint=eastwest;whiteSpace=wrap;html=1;" vertex="1" parent="NTdiQIHInAV0fFWwkLTP-45">
          <mxGeometry y="98" width="180" height="62" as="geometry" />
        </mxCell>
      </root>
    </mxGraphModel>
  </diagram>
</mxfile>
